<svg xmlns="http://www.w3.org/2000/svg">
	<path fill-rule="nonzero" d="M6.436 2.5c-.299 0-.542-.224-.542-.5s.243-.5.542-.5h7.022c.3 0 .542.224.542.5s-.243.5-.542.5H6.436zM.49 2.5A.495.495 0 0 1 0 2c0-.276.22-.5.49-.5h2.938c.27 0 .49.224.49.5s-.22.5-.49.5H.49zm3.428.5h1.959V1h-1.96v2zm-.98-2c0-.553.438-1 .979-1h1.96c.54 0 .979.447.979 1v2c0 .553-.438 1-.979 1h-1.96a.989.989 0 0 1-.979-1V1zm3.9 6.5c.27 0 .49-.224.49-.5s-.22-.5-.49-.5H.49C.22 6.5 0 6.724 0 7s.22.5.49.5h6.348zm6.575 0c.324 0 .587-.224.587-.5s-.263-.5-.587-.5H9.891c-.324 0-.586.224-.586.5s.262.5.586.5h3.522zM9.305 8h-1.96V6h1.96v2zm.979-2c0-.553-.438-1-.979-1h-1.96a.989.989 0 0 0-.979 1v2c0 .553.438 1 .979 1h1.96c.54 0 .979-.447.979-1V6zm-3.848 6.5c-.299 0-.542-.224-.542-.5s.243-.5.542-.5h7.022c.3 0 .542.224.542.5s-.243.5-.542.5H6.436zm-5.946 0A.495.495 0 0 1 0 12c0-.276.22-.5.49-.5h2.938c.27 0 .49.224.49.5s-.22.5-.49.5H.49zm3.428.5h1.959v-2h-1.96v2zm-.98-2c0-.553.438-1 .979-1h1.96c.54 0 .979.447.979 1v2c0 .553-.438 1-.979 1h-1.96a.989.989 0 0 1-.979-1v-2z"></path>
		l-1.2,0.4l-1.2,0.4l-1.2,0.4l-1.2,0.3l-1.2,0.3l-1.2,0.3l-1.2,0.3l-1.2,0.3l-1.2,0.3l-1.3,0.2l-1.3,0.2l-1.3,0.2l-1.3,0.2l-1.3,0.2
		l-1.3,0.2l-1.3,0.1l-1.3,0.1l-1.3,0.1l-1.3,0.1L107,193l-1.3,0.1l-1.3,0l-1.3,0l-1.3,0l-2.4,0l-2.3-0.1l-2.3-0.1l-2.3-0.2l-2.3-0.2
		l-2.3-0.3l-2.3-0.3l-2.2-0.4L81,191l-2.2-0.5l-2.2-0.5l-2.1-0.6l-2.1-0.7l-2.1-0.7l-2.1-0.8l-2.1-0.8l-2-0.9l-2-0.9l-2-1l-2-1
		l-2-1.1l-1.9-1.1l-1.9-1.2l-1.9-1.2l-1.9-1.3l-1.8-1.3l-1.8-1.4l-1.8-1.4l-1.8-1.5l-1.7-1.5l-1.7-1.6l-1.7-1.6l-1.7-1.7l-1.6-1.7
		l-1.6-1.7l-1.5-1.7l-1.5-1.8l-1.4-1.8l-1.4-1.8l-1.3-1.8l-1.2-1.9l-1.2-1.9l-1.1-1.9l-1.1-1.9l-1-2l-1-2l-0.9-2l-0.9-2l-0.8-2
		l-0.8-2.1l-0.7-2.1l-0.7-2.1l-0.6-2.1l-0.6-2.2l-0.5-2.2l-0.5-2.2l-0.4-2.2l-0.3-2.2l-0.3-2.3l-0.2-2.3l-0.2-2.3l-0.1-2.3L9,104
		l0-2.4l0-2.3L9.1,97l0.1-2.3l0.2-2.3l0.2-2.2L10,88l0.3-2.2l0.4-2.2l0.5-2.2l0.5-2.1l0.6-2.1l0.6-2.1l0.7-2.1l0.7-2.1l0.8-2l0.8-2
		l0.9-2l0.9-2l1-2l1-1.9l1.1-1.9l1.2-1.9l1.2-1.9l1.3-1.8l1.3-1.8l1.4-1.8l1.4-1.8l1.5-1.7l1.5-1.7l1.6-1.7l1.6-1.7l1.7-1.7l1.7-1.6
		l1.7-1.6l1.8-1.5l1.8-1.5l1.8-1.4l1.8-1.4l1.9-1.3l1.9-1.3l1.9-1.2l1.9-1.2l1.9-1.1l2-1.1l2-1l2-1l2-0.9l2.1-0.9l2.1-0.8l2.1-0.8
		l2.1-0.7l2.1-0.7l2.2-0.6l2.2-0.5l2.2-0.5l2.2-0.4l2.2-0.4l2.3-0.3l2.3-0.3l2.3-0.2l2.3-0.2l2.3-0.1l2.4-0.1l2.4,0l1.4,0l1.4,0
		l1.4,0l1.4,0.1l1.3,0.1l1.3,0.1l1.3,0.1l1.3,0.1l1.3,0.2l1.3,0.2l1.3,0.2l1.3,0.2l1.3,0.2l1.3,0.2l1.3,0.3l1.3,0.3l1.3,0.3l1.2,0.3
		l1.2,0.3l1.2,0.3l1.2,0.4l1.2,0.4l1.2,0.4l1.2,0.4l1.2,0.4l1.2,0.5l1.2,0.5L138,18l1.2,0.5l1.2,0.5l1.1,0.5l1.1,0.6l1.1,0.6
		l1.1,0.6l1.1,0.6l1.1,0.6l1.1,0.7l1.1,0.7l1.1,0.7l1.1,0.7l1.1,0.7l1,0.7l1,0.8l1,0.8l1,0.8l1,0.8l1,0.8l1,0.8l1,0.9l1,0.9l1,0.9
		l1,0.9l0.9,0.9l0.9,0.9l0.9,0.9V15.2H197v173.6h-30.7v-21.6l-0.6,0.6l-1,0.9l-1,0.9l-1,0.9l-1,0.9l-1,0.8l-1,0.8l-1,0.8l-1,0.8
		l-1,0.8l-1,0.8l-1,0.7l-1.1,0.7l-1.1,0.7l-1.1,0.7l-1.1,0.7l-1.1,0.7l-1.1,0.6l-1.1,0.6l-1.1,0.6l-1.1,0.6L143.7,183.4L143.7,183.4
		z M104,40.4l-1.1,0l-1.1,0l-1.1,0l-1.1,0.1l-1.1,0.1l-1.1,0.1l-1,0.1l-1,0.1l-1,0.1l-1,0.2l-1,0.2l-1,0.2l-1,0.2l-1,0.2l-1,0.2
		l-1,0.2l-1,0.3l-1,0.3l-1,0.3l-1,0.3l-1,0.3l-1,0.3l-1,0.4l-1,0.4l-1,0.4l-1,0.4l-0.9,0.4l-0.9,0.4L74.8,47l-0.9,0.5L73,48
		l-0.9,0.5l-1.8,1.1l-1.8,1.1l-1.7,1.2L65.1,53l-1.6,1.2L62,55.5l-1.5,1.3L59,58.3l-1.4,1.4l-1.4,1.5l-1.3,1.6l-1.3,1.6L52.3,66
		l-1.2,1.7L50,69.5l-1.1,1.8l-0.5,0.9l-0.5,0.9l-0.5,0.9l-0.5,0.9L46.4,76l-0.4,0.9l-0.4,0.9l-0.4,0.9l-0.4,0.9l-0.4,1l-0.4,1
		l-0.3,1l-0.3,1l-0.3,1l-0.3,1l-0.3,1l-0.3,1l-0.2,1l-0.2,1l-0.2,1l-0.2,1l-0.2,1l-0.2,1l-0.1,1l-0.1,1l-0.1,1l-0.1,1l-0.1,1l-0.1,1
		l0,1l0,1l0,1l0,1l0,1l0,1l0.1,1l0.1,1l0.1,1l0.1,1l0.1,1l0.1,1l0.2,1l0.2,1l0.2,1l0.2,1l0.2,1l0.2,1l0.3,1l0.3,1l0.3,1l0.3,1l0.3,1
		l0.3,1l0.4,1l0.4,1l0.4,0.9l0.4,1l0.4,0.9l0.5,0.9l0.5,0.9l0.5,0.9l0.5,0.9l0.5,0.9l0.5,0.9l1.1,1.8l1.2,1.8l1.2,1.7l1.3,1.7
		l1.3,1.6l1.3,1.6l1.4,1.5l1.4,1.5l1.5,1.4l1.5,1.4l1.6,1.3l1.6,1.3l1.7,1.2l1.7,1.2l1.8,1.1l1.8,1.1l0.9,0.5l0.9,0.5l0.9,0.5
		l0.9,0.5l0.9,0.4l0.9,0.4l0.9,0.4l0.9,0.4l1,0.4l1,0.4l1,0.3l1,0.3l1,0.3l1,0.3l1,0.3l1,0.3l1,0.3l1,0.2l1,0.2l1,0.2l1,0.2l1,0.2
		l1,0.2l1,0.1l1,0.1l1,0.1l1,0.1l1,0.1l1,0.1l1,0l1,0l1.1,0l1.1,0l1.1,0l1.1,0l1.1-0.1l1.1-0.1l1-0.1l1-0.1l1-0.1l1-0.1l1-0.2l1-0.2
		l1-0.2l1-0.2l1-0.2l1-0.2l1-0.3l1-0.3l1-0.3l1-0.3l1-0.3l1-0.3l1-0.3l1-0.4l1-0.4l1-0.4l1-0.4l1-0.4l1-0.4l1-0.5l1-0.5l1-0.5
		l0.9-0.5l1.9-1.1l1.8-1.1l1.8-1.1l1.7-1.2l1.7-1.2l1.6-1.3l1.5-1.3l1.5-1.4l1.4-1.4l1.4-1.4l1.3-1.5l1.3-1.5l1.2-1.6l1.1-1.6
		l1.1-1.7l1.1-1.8l0.5-0.9l0.5-0.9l0.5-0.9l0.5-0.9l0.4-0.9l0.4-0.9l0.4-0.9l0.4-0.9l0.4-0.9l0.4-0.9l0.3-0.9l0.3-1l0.3-1l0.3-1
		l0.3-1l0.3-1l0.2-1l0.2-1l0.2-1l0.2-1l0.2-1l0.2-1l0.2-1l0.1-1l0.1-1l0.1-1.1l0.1-1.1l0.1-1.1l0.1-1.1l0-1.1l0-1.1l0-1.1l0-1.7
		l-0.1-1.7l-0.1-1.6l-0.1-1.6l-0.2-1.6l-0.2-1.6l-0.2-1.6l-0.3-1.5l-0.3-1.5l-0.3-1.5l-0.4-1.5l-0.4-1.5l-0.4-1.4l-0.5-1.4l-0.5-1.4
		l-0.6-1.4l-0.6-1.4l-0.6-1.4l-0.7-1.3l-0.7-1.3l-0.7-1.3l-0.8-1.3l-0.8-1.3l-0.8-1.3l-0.9-1.2l-0.9-1.2l-0.9-1.2l-1-1.2l-1-1.2
		l-1.1-1.2l-1.1-1.2l-1.1-1.1l-1.2-1.1l-1.2-1.1l-1.2-1l-1.2-1l-1.2-1l-1.2-0.9l-1.3-0.9l-1.3-0.9l-1.3-0.8l-1.3-0.8l-1.3-0.8
		l-1.3-0.7l-1.3-0.7l-1.4-0.6l-1.4-0.6l-1.4-0.6l-1.4-0.5l-1.4-0.5l-1.5-0.5l-1.5-0.4l-1.5-0.4l-1.5-0.4l-1.5-0.3l-1.5-0.3l-1.6-0.3
		l-1.6-0.2l-1.6-0.2l-1.6-0.2l-1.6-0.1l-1.7-0.1l-1.7-0.1L104,40.4L104,40.4z"/>
</svg>
